<?xml version="1.0" standalone="no"?>
<!DOCTYPE svg PUBLIC "-//W3C//DTD SVG 20010904//EN"
 "http://www.w3.org/TR/2001/REC-SVG-20010904/DTD/svg10.dtd">
<svg version="1.0" xmlns="http://www.w3.org/2000/svg"
 width="1200.000000pt" height="600.000000pt" viewBox="0 0 1200.000000 600.000000"
 preserveAspectRatio="xMidYMid meet">

<g transform="translate(0.000000,600.000000) scale(0.100000,-0.100000)"
fill="#000000" stroke="none">
<path d="M1640 4279 c-307 -26 -526 -190 -581 -434 -19 -86 -10 -91 184 -112
113 -12 163 -14 175 -7 9 6 27 37 39 70 37 97 134 164 238 164 60 0 132 -29
164 -65 39 -45 51 -90 51 -196 l0 -87 -67 -7 c-399 -40 -558 -91 -689 -220
-240 -237 -189 -696 92 -821 117 -52 314 -58 444 -14 75 25 178 91 235 149 21
23 42 41 45 41 4 0 23 -24 44 -54 53 -77 139 -156 170 -156 17 0 62 32 148
106 129 111 148 130 148 150 0 6 -23 46 -51 88 -85 130 -82 105 -89 601 -7
468 -6 458 -59 562 -85 168 -347 267 -641 242z m268 -1051 c-5 -161 -22 -221
-83 -301 -60 -78 -171 -117 -252 -86 -115 43 -158 219 -86 357 49 96 150 147
318 162 44 4 86 8 94 9 11 1 12 -25 9 -141z"/>
<path d="M5670 4279 c-168 -20 -318 -87 -415 -184 -111 -111 -183 -315 -120
-339 9 -3 87 -13 175 -23 179 -19 182 -18 201 49 46 171 278 239 400 117 43
-43 59 -98 59 -207 l0 -79 -117 -12 c-364 -36 -534 -96 -660 -234 -90 -99
-133 -218 -133 -367 0 -255 131 -426 359 -471 83 -16 238 -6 322 20 75 24 169
81 240 148 27 25 51 44 52 42 2 -2 20 -27 39 -54 48 -67 142 -155 165 -155 10
0 30 8 43 17 48 33 250 214 251 226 3 27 -5 46 -52 115 -26 40 -54 89 -60 110
-9 25 -14 174 -19 472 -7 468 -8 478 -63 573 -102 174 -378 272 -667 236z
m300 -1013 c0 -57 -4 -127 -10 -156 -39 -207 -203 -329 -347 -259 -62 30 -95
90 -101 184 -13 212 126 322 426 334 l32 1 0 -104z"/>
<path d="M3405 4257 c-114 -30 -196 -98 -258 -213 l-36 -69 -1 111 c0 156 9
148 -190 152 -135 3 -165 1 -186 -13 l-24 -15 0 -820 c0 -731 2 -820 16 -834
22 -22 350 -24 380 -2 18 14 19 35 24 578 6 624 6 620 74 692 68 73 201 73
265 1 60 -69 61 -82 61 -692 0 -540 0 -553 20 -573 18 -18 33 -20 193 -20 134
0 178 3 193 14 18 14 19 35 24 578 l5 563 27 57 c38 82 96 118 188 118 78 0
121 -22 154 -80 20 -34 21 -53 26 -628 5 -573 6 -594 24 -608 28 -20 354 -20
382 0 18 14 19 34 22 647 3 682 -1 741 -49 844 -47 99 -165 188 -287 214 -206
43 -411 -48 -499 -223 l-29 -58 -30 58 c-42 84 -114 158 -190 195 -55 27 -77
32 -157 35 -55 2 -112 -2 -142 -9z"/>
<path d="M8641 4254 c-197 -42 -348 -170 -447 -379 -114 -243 -131 -590 -42
-865 83 -258 256 -432 479 -485 82 -19 236 -19 317 0 360 85 586 486 543 965
-24 262 -104 455 -246 596 -153 152 -385 216 -604 168z m258 -332 c96 -50 141
-224 141 -549 0 -376 -75 -537 -251 -538 -108 0 -176 81 -216 255 -25 110 -25
535 0 635 29 115 79 183 154 211 47 18 122 11 172 -14z"/>
<path d="M10430 4254 c-114 -31 -192 -101 -261 -234 l-38 -75 -1 132 c0 171
10 163 -202 163 -145 0 -160 -2 -178 -20 -20 -20 -20 -33 -20 -834 l0 -815 22
-15 c18 -13 55 -16 194 -16 150 0 173 2 187 18 14 15 16 80 19 542 4 509 4
527 26 591 28 86 70 141 124 168 110 53 213 4 255 -122 15 -46 17 -120 22
-615 5 -485 8 -564 21 -572 8 -5 93 -10 188 -10 161 0 173 1 193 21 20 20 20
24 16 657 -4 704 -6 725 -69 845 -88 164 -297 245 -498 191z"/>
<path d="M6797 4222 c-23 -25 -25 -267 -3 -298 13 -18 32 -19 294 -24 l280 -5
-304 -435 c-167 -239 -311 -451 -321 -470 -12 -26 -18 -71 -21 -177 -8 -244 1
-256 141 -194 310 135 652 130 971 -13 54 -25 60 -26 82 -11 24 15 24 18 24
168 0 178 -2 183 -88 226 -123 61 -299 101 -448 101 -50 0 -84 4 -84 10 0 6
125 189 279 408 153 219 286 412 295 429 23 45 23 264 0 287 -14 14 -77 16
-548 16 -504 0 -534 -1 -549 -18z"/>
</g>
</svg>
